<svg id="visual" viewBox="0 0 900 150" width="900" height="150" xmlns="http://www.w3.org/2000/svg" xmlns:xlink="http://www.w3.org/1999/xlink" version="1.1"><rect x="0" y="0" width="900" height="150" fill="#eeeeff"></rect><path d="M0 86L9.3 86.7C18.7 87.3 37.3 88.7 56.2 89.8C75 91 94 92 112.8 90.2C131.7 88.3 150.3 83.7 169 84.7C187.7 85.7 206.3 92.3 225 94.7C243.7 97 262.3 95 281.2 92C300 89 319 85 337.8 87.3C356.7 89.7 375.3 98.3 394 98.7C412.7 99 431.3 91 450 90C468.7 89 487.3 95 506.2 97.7C525 100.3 544 99.7 562.8 99.8C581.7 100 600.3 101 619 99.2C637.7 97.3 656.3 92.7 675 90.3C693.7 88 712.3 88 731.2 88.5C750 89 769 90 787.8 90.5C806.7 91 825.3 91 844 89.5C862.7 88 881.3 85 890.7 83.5L900 82L900 151L890.7 151C881.3 151 862.7 151 844 151C825.3 151 806.7 151 787.8 151C769 151 750 151 731.2 151C712.3 151 693.7 151 675 151C656.3 151 637.7 151 619 151C600.3 151 581.7 151 562.8 151C544 151 525 151 506.2 151C487.3 151 468.7 151 450 151C431.3 151 412.7 151 394 151C375.3 151 356.7 151 337.8 151C319 151 300 151 281.2 151C262.3 151 243.7 151 225 151C206.3 151 187.7 151 169 151C150.3 151 131.7 151 112.8 151C94 151 75 151 56.2 151C37.3 151 18.7 151 9.3 151L0 151Z" fill="#9aaef2"></path><path d="M0 120L9.3 115.3C18.7 110.7 37.3 101.3 56.2 98.2C75 95 94 98 112.8 100C131.7 102 150.3 103 169 101.5C187.7 100 206.3 96 225 98.7C243.7 101.3 262.3 110.7 281.2 111.8C300 113 319 106 337.8 101.5C356.7 97 375.3 95 394 98.2C412.7 101.3 431.3 109.7 450 113.7C468.7 117.7 487.3 117.3 506.2 117C525 116.7 544 116.3 562.8 114.3C581.7 112.3 600.3 108.7 619 105.3C637.7 102 656.3 99 675 101C693.7 103 712.3 110 731.2 113.3C750 116.7 769 116.3 787.8 114.7C806.7 113 825.3 110 844 108C862.7 106 881.3 105 890.7 104.5L900 104L900 151L890.7 151C881.3 151 862.7 151 844 151C825.3 151 806.7 151 787.8 151C769 151 750 151 731.2 151C712.3 151 693.7 151 675 151C656.3 151 637.7 151 619 151C600.3 151 581.7 151 562.8 151C544 151 525 151 506.2 151C487.3 151 468.7 151 450 151C431.3 151 412.7 151 394 151C375.3 151 356.7 151 337.8 151C319 151 300 151 281.2 151C262.3 151 243.7 151 225 151C206.3 151 187.7 151 169 151C150.3 151 131.7 151 112.8 151C94 151 75 151 56.2 151C37.3 151 18.7 151 9.3 151L0 151Z" fill="#7485c1"></path><path d="M0 107L9.3 110.7C18.7 114.3 37.3 121.7 56.2 124C75 126.3 94 123.7 112.8 120.2C131.7 116.7 150.3 112.3 169 110.7C187.7 109 206.3 110 225 113.5C243.7 117 262.3 123 281.2 125.2C300 127.3 319 125.7 337.8 123.5C356.7 121.3 375.3 118.7 394 116C412.7 113.3 431.3 110.7 450 111.3C468.7 112 487.3 116 506.2 117C525 118 544 116 562.8 115.8C581.7 115.7 600.3 117.3 619 119.2C637.7 121 656.3 123 675 123.7C693.7 124.3 712.3 123.7 731.2 123.2C750 122.7 769 122.3 787.8 119.8C806.7 117.3 825.3 112.7 844 111.7C862.7 110.7 881.3 113.3 890.7 114.7L900 116L900 151L890.7 151C881.3 151 862.7 151 844 151C825.3 151 806.7 151 787.8 151C769 151 750 151 731.2 151C712.3 151 693.7 151 675 151C656.3 151 637.7 151 619 151C600.3 151 581.7 151 562.8 151C544 151 525 151 506.2 151C487.3 151 468.7 151 450 151C431.3 151 412.7 151 394 151C375.3 151 356.7 151 337.8 151C319 151 300 151 281.2 151C262.3 151 243.7 151 225 151C206.3 151 187.7 151 169 151C150.3 151 131.7 151 112.8 151C94 151 75 151 56.2 151C37.3 151 18.7 151 9.3 151L0 151Z" fill="#4f5e93"></path><path d="M0 135L9.3 133C18.7 131 37.3 127 56.2 127.7C75 128.3 94 133.7 112.8 135.2C131.7 136.7 150.3 134.3 169 133.7C187.7 133 206.3 134 225 134C243.7 134 262.3 133 281.2 133C300 133 319 134 337.8 135C356.7 136 375.3 137 394 135.2C412.7 133.3 431.3 128.7 450 126.7C468.7 124.7 487.3 125.3 506.2 127.8C525 130.3 544 134.7 562.8 134.8C581.7 135 600.3 131 619 128.5C637.7 126 656.3 125 675 127.2C693.7 129.3 712.3 134.7 731.2 134.7C750 134.7 769 129.3 787.8 128.2C806.7 127 825.3 130 844 131.3C862.7 132.7 881.3 132.3 890.7 132.2L900 132L900 151L890.7 151C881.3 151 862.7 151 844 151C825.3 151 806.7 151 787.8 151C769 151 750 151 731.2 151C712.3 151 693.7 151 675 151C656.3 151 637.7 151 619 151C600.3 151 581.7 151 562.8 151C544 151 525 151 506.2 151C487.3 151 468.7 151 450 151C431.3 151 412.7 151 394 151C375.3 151 356.7 151 337.8 151C319 151 300 151 281.2 151C262.3 151 243.7 151 225 151C206.3 151 187.7 151 169 151C150.3 151 131.7 151 112.8 151C94 151 75 151 56.2 151C37.3 151 18.7 151 9.3 151L0 151Z" fill="#2b3a67"></path></svg>