<svg id="visual" viewBox="0 0 960 150" width="960" height="150" xmlns="http://www.w3.org/2000/svg" xmlns:xlink="http://www.w3.org/1999/xlink" version="1.1"><rect x="0" y="0" width="960" height="150" fill="#d3d4f5"></rect><path d="M0 42L22.8 47.3C45.7 52.7 91.3 63.3 137 63.3C182.7 63.3 228.3 52.7 274 53C319.7 53.3 365.3 64.7 411.2 65.8C457 67 503 58 548.8 52C594.7 46 640.3 43 686 43.3C731.7 43.7 777.3 47.3 823 52.8C868.7 58.3 914.3 65.7 937.2 69.3L960 73L960 151L937.2 151C914.3 151 868.7 151 823 151C777.3 151 731.7 151 686 151C640.3 151 594.7 151 548.8 151C503 151 457 151 411.2 151C365.3 151 319.7 151 274 151C228.3 151 182.7 151 137 151C91.3 151 45.7 151 22.8 151L0 151Z" fill="#9aaef2"></path><path d="M0 97L22.8 95C45.7 93 91.3 89 137 86.8C182.7 84.7 228.3 84.3 274 80.7C319.7 77 365.3 70 411.2 68.8C457 67.7 503 72.3 548.8 77C594.7 81.7 640.3 86.3 686 84.7C731.7 83 777.3 75 823 70.2C868.7 65.3 914.3 63.7 937.2 62.8L960 62L960 151L937.2 151C914.3 151 868.7 151 823 151C777.3 151 731.7 151 686 151C640.3 151 594.7 151 548.8 151C503 151 457 151 411.2 151C365.3 151 319.7 151 274 151C228.3 151 182.7 151 137 151C91.3 151 45.7 151 22.8 151L0 151Z" fill="#7485c1"></path><path d="M0 97L22.8 97.5C45.7 98 91.3 99 137 99.8C182.7 100.7 228.3 101.3 274 101.3C319.7 101.3 365.3 100.7 411.2 100.7C457 100.7 503 101.3 548.8 100.5C594.7 99.7 640.3 97.3 686 98.5C731.7 99.7 777.3 104.3 823 103.8C868.7 103.3 914.3 97.7 937.2 94.8L960 92L960 151L937.2 151C914.3 151 868.7 151 823 151C777.3 151 731.7 151 686 151C640.3 151 594.7 151 548.8 151C503 151 457 151 411.2 151C365.3 151 319.7 151 274 151C228.3 151 182.7 151 137 151C91.3 151 45.7 151 22.8 151L0 151Z" fill="#4f5e93"></path><path d="M0 125L22.8 122.7C45.7 120.3 91.3 115.7 137 114.8C182.7 114 228.3 117 274 119.7C319.7 122.3 365.3 124.7 411.2 124.3C457 124 503 121 548.8 119.5C594.7 118 640.3 118 686 118.8C731.7 119.7 777.3 121.3 823 121.7C868.7 122 914.3 121 937.2 120.5L960 120L960 151L937.2 151C914.3 151 868.7 151 823 151C777.3 151 731.7 151 686 151C640.3 151 594.7 151 548.8 151C503 151 457 151 411.2 151C365.3 151 319.7 151 274 151C228.3 151 182.7 151 137 151C91.3 151 45.7 151 22.8 151L0 151Z" fill="#2b3a67"></path></svg>