<svg id="visual" viewBox="0 0 900 600" width="900" height="600" xmlns="http://www.w3.org/2000/svg" xmlns:xlink="http://www.w3.org/1999/xlink" version="1.1"><rect x="0" y="0" width="900" height="600" fill="#ffd7fc"></rect><path d="M0 415L21.5 413.5C43 412 86 409 128.8 402.5C171.7 396 214.3 386 257.2 384.3C300 382.7 343 389.3 385.8 395C428.7 400.7 471.3 405.3 514.2 406.7C557 408 600 406 642.8 400.2C685.7 394.3 728.3 384.7 771.2 379.5C814 374.3 857 373.7 878.5 373.3L900 373L900 601L878.5 601C857 601 814 601 771.2 601C728.3 601 685.7 601 642.8 601C600 601 557 601 514.2 601C471.3 601 428.7 601 385.8 601C343 601 300 601 257.2 601C214.3 601 171.7 601 128.8 601C86 601 43 601 21.5 601L0 601Z" fill="#9aaef2"></path><path d="M0 446L21.5 448C43 450 86 454 128.8 453.8C171.7 453.7 214.3 449.3 257.2 440.7C300 432 343 419 385.8 416.5C428.7 414 471.3 422 514.2 428.3C557 434.7 600 439.3 642.8 447.3C685.7 455.3 728.3 466.7 771.2 458.5C814 450.3 857 422.7 878.5 408.8L900 395L900 601L878.5 601C857 601 814 601 771.2 601C728.3 601 685.7 601 642.8 601C600 601 557 601 514.2 601C471.3 601 428.7 601 385.8 601C343 601 300 601 257.2 601C214.3 601 171.7 601 128.8 601C86 601 43 601 21.5 601L0 601Z" fill="#8493d6"></path><path d="M0 469L21.5 470C43 471 86 473 128.8 475.8C171.7 478.7 214.3 482.3 257.2 477.7C300 473 343 460 385.8 463.7C428.7 467.3 471.3 487.7 514.2 489.8C557 492 600 476 642.8 472.2C685.7 468.3 728.3 476.7 771.2 474C814 471.3 857 457.7 878.5 450.8L900 444L900 601L878.5 601C857 601 814 601 771.2 601C728.3 601 685.7 601 642.8 601C600 601 557 601 514.2 601C471.3 601 428.7 601 385.8 601C343 601 300 601 257.2 601C214.3 601 171.7 601 128.8 601C86 601 43 601 21.5 601L0 601Z" fill="#6f78bb"></path><path d="M0 509L21.5 505.3C43 501.7 86 494.3 128.8 492.7C171.7 491 214.3 495 257.2 497.7C300 500.3 343 501.7 385.8 505.2C428.7 508.7 471.3 514.3 514.2 511.3C557 508.3 600 496.7 642.8 497.7C685.7 498.7 728.3 512.3 771.2 512.7C814 513 857 500 878.5 493.5L900 487L900 601L878.5 601C857 601 814 601 771.2 601C728.3 601 685.7 601 642.8 601C600 601 557 601 514.2 601C471.3 601 428.7 601 385.8 601C343 601 300 601 257.2 601C214.3 601 171.7 601 128.8 601C86 601 43 601 21.5 601L0 601Z" fill="#5b5ea0"></path><path d="M0 526L21.5 526.3C43 526.7 86 527.3 128.8 528.8C171.7 530.3 214.3 532.7 257.2 536.2C300 539.7 343 544.3 385.8 548.5C428.7 552.7 471.3 556.3 514.2 554.7C557 553 600 546 642.8 542.7C685.7 539.3 728.3 539.7 771.2 545.3C814 551 857 562 878.5 567.5L900 573L900 601L878.5 601C857 601 814 601 771.2 601C728.3 601 685.7 601 642.8 601C600 601 557 601 514.2 601C471.3 601 428.7 601 385.8 601C343 601 300 601 257.2 601C214.3 601 171.7 601 128.8 601C86 601 43 601 21.5 601L0 601Z" fill="#474586"></path></svg>