<svg id="visual" viewBox="0 0 960 500" width="960" height="500" xmlns="http://www.w3.org/2000/svg" xmlns:xlink="http://www.w3.org/1999/xlink" version="1.1"><rect x="0" y="0" width="960" height="500" fill="#e1f2ff"></rect><path d="M0 366L22.8 359.5C45.7 353 91.3 340 137 328.2C182.7 316.3 228.3 305.7 274 304.7C319.7 303.7 365.3 312.3 411.2 314C457 315.7 503 310.3 548.8 315.5C594.7 320.7 640.3 336.3 686 345.3C731.7 354.3 777.3 356.7 823 359.5C868.7 362.3 914.3 365.7 937.2 367.3L960 369L960 501L937.2 501C914.3 501 868.7 501 823 501C777.3 501 731.7 501 686 501C640.3 501 594.7 501 548.8 501C503 501 457 501 411.2 501C365.3 501 319.7 501 274 501C228.3 501 182.7 501 137 501C91.3 501 45.7 501 22.8 501L0 501Z" fill="#9aaef2"></path><path d="M0 410L22.8 401.5C45.7 393 91.3 376 137 370.3C182.7 364.7 228.3 370.3 274 375.5C319.7 380.7 365.3 385.3 411.2 387.8C457 390.3 503 390.7 548.8 386.8C594.7 383 640.3 375 686 368.3C731.7 361.7 777.3 356.3 823 355.7C868.7 355 914.3 359 937.2 361L960 363L960 501L937.2 501C914.3 501 868.7 501 823 501C777.3 501 731.7 501 686 501C640.3 501 594.7 501 548.8 501C503 501 457 501 411.2 501C365.3 501 319.7 501 274 501C228.3 501 182.7 501 137 501C91.3 501 45.7 501 22.8 501L0 501Z" fill="#7485c1"></path><path d="M0 430L22.8 429.3C45.7 428.7 91.3 427.3 137 419C182.7 410.7 228.3 395.3 274 391.5C319.7 387.7 365.3 395.3 411.2 404C457 412.7 503 422.3 548.8 418.7C594.7 415 640.3 398 686 394.8C731.7 391.7 777.3 402.3 823 409.8C868.7 417.3 914.3 421.7 937.2 423.8L960 426L960 501L937.2 501C914.3 501 868.7 501 823 501C777.3 501 731.7 501 686 501C640.3 501 594.7 501 548.8 501C503 501 457 501 411.2 501C365.3 501 319.7 501 274 501C228.3 501 182.7 501 137 501C91.3 501 45.7 501 22.8 501L0 501Z" fill="#4f5e93"></path><path d="M0 437L22.8 440.2C45.7 443.3 91.3 449.7 137 455.8C182.7 462 228.3 468 274 464.3C319.7 460.7 365.3 447.3 411.2 441.2C457 435 503 436 548.8 438C594.7 440 640.3 443 686 444.7C731.7 446.3 777.3 446.7 823 447.2C868.7 447.7 914.3 448.3 937.2 448.7L960 449L960 501L937.2 501C914.3 501 868.7 501 823 501C777.3 501 731.7 501 686 501C640.3 501 594.7 501 548.8 501C503 501 457 501 411.2 501C365.3 501 319.7 501 274 501C228.3 501 182.7 501 137 501C91.3 501 45.7 501 22.8 501L0 501Z" fill="#2b3a67"></path></svg>